<svg width="200" height="200" viewBox="0 0 200 200" xmlns="http://www.w3.org/2000/svg">
  <defs>
    <filter id="shadow" x="-20%" y="-20%" width="140%" height="140%">
      <feDropShadow dx="2" dy="2" stdDeviation="3" flood-color="#000000" flood-opacity="0.3"/>
    </filter>
    <filter id="glow" x="-50%" y="-50%" width="200%" height="200%">
      <feGaussianBlur stdDeviation="2" result="coloredBlur"/>
      <feMerge> 
        <feMergeNode in="coloredBlur"/>
        <feMergeNode in="SourceGraphic"/>
      </feMerge>
    </filter>
  </defs>
  
  <!-- Fondo negro -->
  <rect width="200" height="200" fill="#000000"/>
  
  <!-- Nike Swoosh -->
  <path d="M45 120 Q60 110 75 115 Q90 120 105 125 Q120 130 135 135 Q150 140 165 145" 
        stroke="#DC2626" stroke-width="8" fill="none" stroke-linecap="round" filter="url(#shadow)"/>
  <path d="M45 120 Q60 110 75 115 Q90 120 105 125 Q120 130 135 135 Q150 140 165 145" 
        stroke="#FFFFFF" stroke-width="4" fill="none" stroke-linecap="round"/>
  
  <!-- Sneaker Nike Air Max -->
  <g transform="translate(30, 80)">
    <!-- Suela -->
    <ellipse cx="25" cy="35" rx="30" ry="8" fill="#374151" stroke="#1F2937" stroke-width="2"/>
    <!-- Cuerpo del zapato -->
    <path d="M10 25 Q15 15 25 10 Q35 15 40 25 L45 30 Q50 35 45 40 L40 45 Q35 50 25 50 Q15 50 10 45 L5 30 Q0 25 10 25" 
          fill="#E5E7EB" stroke="#9CA3AF" stroke-width="2"/>
    <!-- Detalles -->
    <circle cx="25" cy="30" r="3" fill="#DC2626"/>
    <path d="M15 20 Q20 18 25 20 Q30 22 35 20" stroke="#DC2626" stroke-width="2" fill="none"/>
  </g>
  
  <!-- Gorra -->
  <g transform="translate(85, 45)">
    <ellipse cx="15" cy="10" rx="20" ry="8" fill="#FFFFFF" stroke="#9CA3AF" stroke-width="2"/>
    <rect x="0" y="10" width="30" height="8" fill="#FFFFFF" stroke="#9CA3AF" stroke-width="2"/>
    <rect x="0" y="18" width="30" height="3" fill="#DC2626"/>
  </g>
  
  <!-- Letras LDS con estilo graffiti -->
  <!-- L -->
  <g transform="translate(70, 90)">
    <path d="M0 0 L0 40 L35 40" stroke="#FFFFFF" stroke-width="12" fill="none" stroke-linecap="round" stroke-linejoin="round" filter="url(#glow)"/>
    <path d="M0 0 L0 40 L35 40" stroke="#DC2626" stroke-width="8" fill="none" stroke-linecap="round" stroke-linejoin="round"/>
  </g>
  
  <!-- D -->
  <g transform="translate(110, 90)">
    <path d="M0 0 L0 40 Q15 40 25 30 Q35 20 25 10 Q15 0 0 0" stroke="#FFFFFF" stroke-width="12" fill="none" stroke-linecap="round" stroke-linejoin="round" filter="url(#glow)"/>
    <path d="M0 0 L0 40 Q15 40 25 30 Q35 20 25 10 Q15 0 0 0" stroke="#DC2626" stroke-width="8" fill="none" stroke-linecap="round" stroke-linejoin="round"/>
  </g>
  
  <!-- S -->
  <g transform="translate(150, 90)">
    <path d="M35 10 Q25 10 20 15 Q15 20 20 25 Q25 30 35 30 Q25 30 20 35 Q15 40 20 45 Q25 50 35 50" 
          stroke="#FFFFFF" stroke-width="12" fill="none" stroke-linecap="round" stroke-linejoin="round" filter="url(#glow)"/>
    <path d="M35 10 Q25 10 20 15 Q15 20 20 25 Q25 30 35 30 Q25 30 20 35 Q15 40 20 45 Q25 50 35 50" 
          stroke="#DC2626" stroke-width="8" fill="none" stroke-linecap="round" stroke-linejoin="round"/>
  </g>
  
  <!-- Estrellas amarillas -->
  <g fill="#FCD34D">
    <polygon points="20,30 22,25 27,25 23,20 25,15 20,18 15,15 17,20 13,25 18,25" filter="url(#shadow)"/>
    <polygon points="180,40 182,35 187,35 183,30 185,25 180,28 175,25 177,30 173,35 178,35" filter="url(#shadow)"/>
    <polygon points="25,170 27,165 32,165 28,160 30,155 25,158 20,155 22,160 18,165 23,165" filter="url(#shadow)"/>
    <polygon points="175,160 177,155 182,155 178,150 180,145 175,148 170,145 172,150 168,155 173,155" filter="url(#shadow)"/>
  </g>
  
  <!-- Salpicaduras rojas -->
  <g fill="#DC2626" opacity="0.8">
    <circle cx="15" cy="15" r="3"/>
    <circle cx="185" cy="25" r="2"/>
    <circle cx="20" cy="185" r="2.5"/>
    <circle cx="180" cy="175" r="2"/>
    <ellipse cx="10" cy="190" rx="4" ry="2"/>
    <ellipse cx="190" cy="10" rx="3" ry="1.5"/>
  </g>
  
  <!-- Salpicaduras negras -->
  <g fill="#000000" opacity="0.6">
    <circle cx="25" cy="20" r="1.5"/>
    <circle cx="175" cy="30" r="1"/>
    <circle cx="30" cy="180" r="1.5"/>
    <circle cx="170" cy="170" r="1"/>
  </g>
</svg>
